<?xml version="1.0" standalone="no"?>
<!DOCTYPE svg PUBLIC "-//W3C//DTD SVG 20010904//EN"
 "http://www.w3.org/TR/2001/REC-SVG-20010904/DTD/svg10.dtd">
<svg version="1.0" xmlns="http://www.w3.org/2000/svg"
 width="188.000000pt" height="208.000000pt" viewBox="0 0 188.000000 208.000000"
 preserveAspectRatio="xMidYMid meet">
<style>
    g {
        fill: black;
        
    }
    @media (prefers-color-scheme: dark) {
        g {
            fill: white;
            stroke: white;
            stroke-width:80px;
        }
    }
</style>
<g transform="translate(0.000000,208.000000) scale(0.100000,-0.100000)"
fill="#000" stroke="none">
<path d="M1155 2019 c-155 -23 -383 -119 -546 -230 -160 -110 -336 -293 -397
-414 -27 -55 -58 -175 -45 -175 5 0 14 24 21 53 18 80 66 165 143 255 267 314
722 527 1030 484 175 -25 288 -117 333 -271 46 -156 -1 -327 -137 -496 -172
-214 -450 -382 -781 -470 -49 -14 -91 -27 -94 -30 -15 -15 15 -15 90 -1 287
57 556 208 763 428 86 91 131 160 173 260 23 56 26 77 27 183 0 104 -3 128
-24 180 -33 83 -134 184 -213 213 -105 39 -216 49 -343 31z"/>

<path d="M893 1693 c-35 -45 -277 -429 -355 -563 -222 -380 -341 -663 -388
-921 -23 -132 -22 -119 -11 -119 5 0 14 24 21 53 26 112 84 297 126 405 106
267 204 449 520 958 102 165 134 224 121 224 -3 0 -18 -17 -34 -37z"/>

</g>
</svg>
